{"title":"BBC Proms 2012 - 49. Gilbert and Sullivan","uid":7591996,"size":3113495629,"categoryP":"video","categoryS":"music_videos","magnet":"?xt=urn:btih:38a932b440ba32dfba791cbbd217996b66e3f3d4&amp;dn=BBC+Proms+2012+-+49.+Gilbert+and+Sullivan&amp;tr=udp%3A%2F%2Ftracker.openbittorrent.com%3A80&amp;tr=udp%3A%2F%2Fopen.demonii.com%3A1337&amp;tr=udp%3A%2F%2Ftracker.coppersurfer.tk%3A6969&amp;tr=udp%3A%2F%2Fexodus.desync.com%3A6969","seeders":1,"leechers":1,"uploader":"deandominic","files":2,"time":1346579858,"description":"BBC Proms 2012 - 49. Gilbert and Sullivan\n\nSullivan\nThe Yeomen of the Guard (133 mins)\nsemi-staged\n\nLeigh Melrose baritone (Lt Sir Richard Cholmondeley)\nAndrew Kennedy tenor (Colonel Fairfax)\nLisa Milne soprano (Elsie Maynard)\nVictoria Simmonds mezzo-soprano (Phoebe Meryll)\nFelicity Palmer mezzo-soprano (Dame Carruthers)\nMary Bevan soprano (Kate)\nMark Richardson bass-baritone (Sergeant Meryll)\nTom Randle tenor (Leonard Meryll)\nMark Stone baritone (Jack Point)\nToby Stafford-Allen baritone (Wilfred Shadbolt)\nBBC Singers\nBBC Concert Orchestra\nJane Glover conductor\nMartin Duncan stage director\n\nRecent Proms seasons have seen a liberal sprinkling of complete Gilbert and Sullivan operettas, under such distinguished conductors as Jane Glover and the late Charles Mackerras. With its historic London setting, the grandest, most emotionally engaging of the Savoy operas is a must for 2012.\n\nVideo\nID                                       : 1\nFormat                                   : AVC\nFormat/Info                              : Advanced Video Codec\nFormat profile                           : &lt;a class=&quot;__cf_email__&quot; href=&quot;/cdn-cgi/l/email-protection&quot; data-cfemail=&quot;2a62434d426a661e041b&quot;&gt;[email&amp;#160;protected]&lt;/a&gt;&lt;script data-cfhash='f9e31' type=&quot;text/javascript&quot;&gt;\n/* &lt;![CDATA[ */!function(){try{var t=&quot;currentScript&quot;in document?document.currentScript:function(){for(var t=document.getElementsByTagName(&quot;script&quot;),e=t.length;e--;)if(t[e].getAttribute(&quot;data-cfhash&quot;))return t[e]}();if(t&amp;&amp;t.previousSibling){var e,r,n,i,c=t.previousSibling,a=c.getAttribute(&quot;data-cfemail&quot;);if(a){for(e=&quot;&quot;,r=parseInt(a.substr(0,2),16),n=2;a.length-n;n+=2)i=parseInt(a.substr(n,2),16)^r,e+=String.fromCharCode(i);e=document.createTextNode(e),c.parentNode.replaceChild(e,c)}t.parentNode.removeChild(t);}}catch(u){}}()/* ]]&gt; */&lt;/script&gt;\nFormat settings, CABAC                   : Yes\nFormat settings, ReFrames                : 6 frames\nCodec ID                                 : avc1\nCodec ID/Info                            : Advanced Video Coding\nDuration                                 : 2h 28mn\nBit rate mode                            : Variable\nBit rate                                 : 2 689 Kbps\nMaximum bit rate                         : 3 500 Kbps\nWidth                                    : 1 280 pixels\nHeight                                   : 720 pixels\nDisplay aspect ratio                     : 16:9\nFrame rate mode                          : Constant\nFrame rate                               : 25.000 fps\nStandard                                 : PAL\nColor space                              : YUV\nChroma subsampling                       : 4:2:0\nBit depth                                : 8 bits\nScan type                                : Progressive\nBits/(Pixel*Frame)                       : 0.117\nStream size                              : 2.80 GiB (96%)\n\nAudio\nID                                       : 2\nFormat                                   : AAC\nFormat/Info                              : Advanced Audio Codec\nFormat profile                           : HE-AAC / LC\nCodec ID                                 : 40\nDuration                                 : 2h 28mn\nBit rate mode                            : Constant\nBit rate                                 : 96.0 Kbps\nChannel(s)                               : 2 channels\nChannel positions                        : Front: L R\nSampling rate                            : 48.0 KHz / 24.0 KHz\nCompression mode                         : Lossy\nStream size                              : 101 MiB (3%)","torrent":{"xt":"urn:btih:38a932b440ba32dfba791cbbd217996b66e3f3d4","amp;dn":"BBC+Proms+2012+-+49.+Gilbert+and+Sullivan","amp;tr":["udp%3A%2F%2Ftracker.openbittorrent.com%3A80","udp%3A%2F%2Fopen.demonii.com%3A1337","udp%3A%2F%2Ftracker.coppersurfer.tk%3A6969","udp%3A%2F%2Fexodus.desync.com%3A6969"],"infoHash":"38a932b440ba32dfba791cbbd217996b66e3f3d4","infoHashBuffer":{"type":"Buffer","data":[56,169,50,180,64,186,50,223,186,121,28,187,210,23,153,107,102,227,243,212]},"announce":[],"urlList":[]}}